<svg width="35" height="35" viewBox="0 0 35 35" fill="none" xmlns="http://www.w3.org/2000/svg">
<path d="M9.02002 1H25.03C29.45 1 33.03 4.58 33.03 9V25.01C33.03 29.43 29.45 33.01 25.03 33.01H9.02002C4.60002 33.01 1.02002 29.43 1.02002 25.01V9C1.02002 4.58 4.60002 1 9.02002 1Z" stroke="white" stroke-width="2" stroke-linecap="round" stroke-linejoin="round"/>
<path d="M10.3902 33.0199H10.0002C7.63016 33.0199 5.45016 31.8499 4.16016 29.8799C5.77016 31.6899 7.99016 32.7999 10.3902 33.0199ZM20.7502 33.0199H16.9602V19.8999H13.1702V16.1499H16.9602V13.3399C16.9602 10.7599 19.0902 8.6499 21.7002 8.6499H26.4402V12.3999H21.7002C21.1802 12.3999 20.7502 12.8199 20.7502 13.3399V16.1499H25.9702L25.0202 19.8999H20.7502V33.0199ZM23.9102 33.0199H23.5002C25.9102 32.8099 28.1402 31.6999 29.7602 29.8799C28.4702 31.8499 26.2902 33.0199 23.9202 33.0199H23.9102Z" fill="white"/>
</svg>
