<svg width="35" height="35" viewBox="0 0 35 35" fill="none" xmlns="http://www.w3.org/2000/svg">
<path d="M9 1H25.01C29.43 1 33.01 4.58 33.01 9V25.01C33.01 29.43 29.43 33.01 25.01 33.01H9C4.58 33.01 1 29.43 1 25.01V9C1 4.58 4.58 1 9 1Z" stroke="white" stroke-width="2" stroke-linecap="round" stroke-linejoin="round"/>
<path d="M23.4101 16C23.8201 18.73 22.4201 21.42 19.9501 22.66C17.4801 23.9 14.5001 23.42 12.5401 21.47C10.5901 19.52 10.1101 16.53 11.3501 14.06C12.5901 11.59 15.2801 10.2 18.0101 10.6C20.8001 11.01 22.9901 13.2 23.4101 16Z" stroke="white" stroke-width="2" stroke-linecap="round" stroke-linejoin="round"/>
</svg>
