<svg width="150" height="160" viewBox="0 0 150 160" fill="none" xmlns="http://www.w3.org/2000/svg">
<circle cx="76" cy="90" r="70" fill="#F0F1F1"/>
<circle cx="75" cy="75" r="75" fill="#F8F8FA"/>
<path d="M105.833 84.25V65.75C105.833 50.3333 99.6666 44.1666 84.25 44.1666H65.75C50.3333 44.1666 44.1666 50.3333 44.1666 65.75V84.25C44.1666 99.6666 50.3333 105.833 65.75 105.833H84.25C99.6666 105.833 105.833 99.6666 105.833 84.25Z" stroke="#2B3252" stroke-width="4" stroke-linecap="round" stroke-linejoin="round"/>
<path d="M67.6617 91.3419C71.2718 91.3419 74.1983 88.4153 74.1983 84.8052C74.1983 81.1951 71.2718 78.2686 67.6617 78.2686C64.0516 78.2686 61.125 81.1951 61.125 84.8052C61.125 88.4153 64.0516 91.3419 67.6617 91.3419Z" stroke="#2B3252" stroke-width="4" stroke-linecap="round" stroke-linejoin="round"/>
<path d="M74.1982 84.8049V61.9575" stroke="#2B3252" stroke-width="4" stroke-linecap="round" stroke-linejoin="round"/>
<path d="M78.4841 58.8745L85.699 61.2794C87.4565 61.8652 88.8749 63.8385 88.8749 65.6885V67.6002C88.8749 70.0977 86.9324 71.4852 84.5891 70.6835L77.3742 68.2786C75.6167 67.6928 74.1982 65.7194 74.1982 63.8694V61.9578C74.1982 59.4911 76.11 58.0728 78.4841 58.8745Z" stroke="#2B3252" stroke-width="4" stroke-linecap="round" stroke-linejoin="round"/>
</svg>
