<svg width="150" height="160" viewBox="0 0 150 160" fill="none" xmlns="http://www.w3.org/2000/svg">
<circle cx="76" cy="90" r="70" fill="#F0F1F1"/>
<circle cx="75" cy="75" r="75" fill="#F8F8FA"/>
<path d="M97.5083 62.4199V78.2992C97.5083 87.7959 92.0816 91.8657 83.9416 91.8657H56.8391C55.4516 91.8657 54.1258 91.7426 52.8924 91.4651C52.1216 91.3417 51.3816 91.1259 50.7033 90.8792C46.0783 89.1526 43.2725 85.1442 43.2725 78.2992V62.4199C43.2725 52.9233 48.6991 48.8534 56.8391 48.8534H83.9416C90.8483 48.8534 95.8125 51.7825 97.1383 58.4734C97.3541 59.7067 97.5083 60.9708 97.5083 62.4199Z" stroke="#2B3252" stroke-width="4" stroke-miterlimit="10" stroke-linecap="round" stroke-linejoin="round"/>
<path d="M106.762 71.6703V87.5496C106.762 97.0462 101.335 101.116 93.195 101.116H66.0925C63.8108 101.116 61.745 100.808 59.9567 100.13C56.2875 98.773 53.79 95.9671 52.8958 91.4655C54.1292 91.743 55.455 91.8661 56.8425 91.8661H83.945C92.085 91.8661 97.5117 87.7962 97.5117 78.2996V62.4203C97.5117 60.9712 97.3884 59.6763 97.1417 58.4738C103 59.7071 106.762 63.8387 106.762 71.6703Z" stroke="#2B3252" stroke-width="4" stroke-miterlimit="10" stroke-linecap="round" stroke-linejoin="round"/>
<path d="M70.3702 78.5147C74.8658 78.5147 78.5102 74.8703 78.5102 70.3747C78.5102 65.8791 74.8658 62.2346 70.3702 62.2346C65.8746 62.2346 62.2301 65.8791 62.2301 70.3747C62.2301 74.8703 65.8746 78.5147 70.3702 78.5147Z" stroke="#2B3252" stroke-width="4" stroke-miterlimit="10" stroke-linecap="round" stroke-linejoin="round"/>
<path d="M52.7383 63.5917V77.1584" stroke="#2B3252" stroke-width="4" stroke-miterlimit="10" stroke-linecap="round" stroke-linejoin="round"/>
<path d="M88.0169 63.5925V77.1593" stroke="#2B3252" stroke-width="4" stroke-miterlimit="10" stroke-linecap="round" stroke-linejoin="round"/>
</svg>
