<svg width="150" height="160" viewBox="0 0 150 160" fill="none" xmlns="http://www.w3.org/2000/svg">
<circle cx="76" cy="90" r="70" fill="#F0F1F1"/>
<circle cx="75" cy="75" r="75" fill="#F8F8FA"/>
<path d="M81.9736 87.3273H66.5569" stroke="#2B3252" stroke-width="4" stroke-miterlimit="10" stroke-linecap="round" stroke-linejoin="round"/>
<path d="M77.0351 45.7642L76.9426 45.98L68.0009 66.7309H59.2134C57.1167 66.7309 55.1126 67.1625 53.2934 67.9334L58.6892 55.045L58.8126 54.7367L59.0284 54.2434C59.0901 54.0584 59.1517 53.8734 59.2442 53.7192C63.2834 44.3767 67.8467 42.2492 77.0351 45.7642Z" stroke="#2B3252" stroke-width="4" stroke-linecap="round" stroke-linejoin="round"/>
<path d="M93.6541 67.3477C92.2666 66.9161 90.7866 66.7311 89.3066 66.7311H68.0008L76.9425 45.9802L77.035 45.7644C77.4975 45.9186 77.9291 46.1344 78.3916 46.3194L85.2058 49.1869C88.9983 50.7594 91.65 52.3936 93.2533 54.3669C93.5616 54.7369 93.8083 55.0761 94.0241 55.4769C94.3016 55.9086 94.5175 56.3402 94.6408 56.8027C94.7641 57.0802 94.8566 57.3577 94.9183 57.6044C95.7508 60.1944 95.2575 63.3702 93.6541 67.3477Z" stroke="#2B3252" stroke-width="4" stroke-linecap="round" stroke-linejoin="round"/>
<path d="M104.359 81.7782V87.7907C104.359 88.4074 104.328 89.0241 104.297 89.6407C103.711 100.402 97.6987 105.828 86.2903 105.828H62.2403C61.5003 105.828 60.7603 105.767 60.0512 105.674C50.2462 105.027 45.0045 99.7849 44.357 89.9799C44.2645 89.2707 44.2028 88.5307 44.2028 87.7907V81.7782C44.2028 75.5807 47.9645 70.2466 53.3295 67.9341C55.1795 67.1632 57.1528 66.7316 59.2495 66.7316H89.3428C90.8537 66.7316 92.3336 66.9474 93.6903 67.3482C99.8261 69.2291 104.359 74.9641 104.359 81.7782Z" stroke="#2B3252" stroke-width="4" stroke-linecap="round" stroke-linejoin="round"/>
<path d="M58.6892 55.0449L53.2934 67.9333C47.9284 70.2458 44.1667 75.5799 44.1667 81.7774V72.7433C44.1667 63.9866 50.395 56.6791 58.6892 55.0449Z" stroke="#2B3252" stroke-width="4" stroke-linecap="round" stroke-linejoin="round"/>
<path d="M104.349 72.742V81.7761C104.349 74.9928 99.8473 69.227 93.6807 67.377C95.284 63.3686 95.7465 60.2236 94.9757 57.6028C94.914 57.3253 94.8215 57.0478 94.6982 56.8011C100.433 59.7611 104.349 65.8353 104.349 72.742Z" stroke="#2B3252" stroke-width="4" stroke-linecap="round" stroke-linejoin="round"/>
</svg>
